<?xml version="1.0" encoding="UTF-8"?>
<svg xmlns="http://www.w3.org/2000/svg" version="1.1" viewBox="0 0 255.2 68">
  <!-- Generator: Adobe Illustrator 29.0.1, SVG Export Plug-In . SVG Version: 2.1.0 Build 192)  -->
  <defs>
    <style>
      .st0, .st1 {
        fill: #fff;
      }

      .st1 {
        fill-rule: evenodd;
      }
    </style>
  </defs>
  <g id="Logo">
    <path class="st1" d="M0,22.8"/>
  </g>
  <g id="katman_3">
    <g>
      <path class="st0" d="M107.2,27.4c-.4-1.2-.9-2.4-1.6-3.4-.7-1-1.4-1.8-2.3-2.5s-1.9-1.2-3.1-1.6c-1.1-.4-2.4-.6-3.8-.6-2.2,0-4.3.6-6.1,1.7-1.8,1.2-3.3,2.9-4.4,5.1-1.1,2.3-1.6,5-1.6,8.3s.5,6,1.6,8.3c1.1,2.3,2.6,4,4.5,5.1,1.9,1.2,4,1.7,6.3,1.7s4.1-.5,5.7-1.4,2.9-2.2,3.9-4c.9-1.7,1.4-3.7,1.4-6l1.4.3h-11.4v-4.1h14.4v4.1c0,3.1-.7,5.8-2,8.1-1.3,2.3-3.1,4.1-5.5,5.3-2.3,1.3-5,1.9-8,1.9s-6.3-.8-8.8-2.4c-2.5-1.6-4.5-3.8-5.9-6.7-1.4-2.9-2.1-6.4-2.1-10.3s.4-5.7,1.2-8.1c.8-2.4,1.9-4.4,3.4-6.1,1.5-1.7,3.2-3,5.2-3.9s4.2-1.3,6.7-1.3,3.9.3,5.6.9c1.7.6,3.3,1.4,4.6,2.5,1.4,1.1,2.5,2.4,3.4,3.9.9,1.5,1.5,3.2,1.9,5h-4.7Z"/>
      <path class="st0" d="M129.6,54c-2.6,0-4.8-.6-6.7-1.8s-3.4-2.9-4.5-5.1c-1.1-2.2-1.6-4.8-1.6-7.7s.5-5.5,1.6-7.7c1.1-2.2,2.6-3.9,4.5-5.1s4.2-1.8,6.7-1.8,4.8.6,6.7,1.8c1.9,1.2,3.4,2.9,4.5,5.1,1.1,2.2,1.6,4.8,1.6,7.7s-.5,5.5-1.6,7.7c-1.1,2.2-2.6,3.9-4.5,5.1-1.9,1.2-4.2,1.8-6.7,1.8ZM129.6,50c1.9,0,3.5-.5,4.8-1.5s2.2-2.3,2.8-3.9.9-3.4.9-5.3-.3-3.7-.9-5.3c-.6-1.6-1.5-3-2.8-4s-2.9-1.5-4.8-1.5-3.5.5-4.8,1.5-2.2,2.3-2.8,4c-.6,1.6-.9,3.4-.9,5.3s.3,3.7.9,5.3c.6,1.6,1.5,2.9,2.8,3.9s2.9,1.5,4.8,1.5ZM124.3,20.3c-.8,0-1.5-.3-2.1-.9-.6-.6-.9-1.3-.9-2.1s.3-1.6.9-2.1c.6-.6,1.3-.8,2.1-.8s1.6.3,2.1.8c.6.6.8,1.3.8,2.1s-.3,1.5-.8,2.1c-.6.6-1.3.9-2.1.9ZM134.9,20.3c-.8,0-1.5-.3-2.1-.9-.6-.6-.9-1.3-.9-2.1s.3-1.6.9-2.1c.6-.6,1.3-.8,2.1-.8s1.6.3,2.1.8.8,1.3.8,2.1-.3,1.5-.8,2.1c-.6.6-1.3.9-2.1.9Z"/>
      <path class="st0" d="M147.8,53.4V15.6h4.4v37.8h-4.4ZM151.9,43v-5.4c0,0,.8,0,.8,0l12.4-12.6h5.4l-13.2,13.4h-.4l-5,4.7ZM165.9,53.4l-11.1-14,3.1-3,13.5,17.1h-5.5Z"/>
      <path class="st0" d="M187.2,25v3.7h-14.7v-3.7h14.7ZM176.7,18.2h4.4v27c0,1.2.2,2.2.5,2.8s.8,1,1.4,1.2,1.2.3,1.8.3.9,0,1.2,0c.3,0,.6-.1.7-.1l.9,3.9c-.3.1-.7.2-1.2.3-.5.1-1.2.2-2,.2-1.2,0-2.4-.3-3.6-.8s-2.1-1.3-2.9-2.4-1.2-2.4-1.2-4.1v-28.2Z"/>
      <path class="st0" d="M200.8,54c-1.8,0-3.4-.3-4.9-1-1.5-.7-2.6-1.7-3.5-3-.9-1.3-1.3-2.9-1.3-4.7s.3-2.9,1-4c.6-1,1.5-1.8,2.6-2.4,1.1-.6,2.3-1,3.6-1.3,1.3-.3,2.6-.5,3.9-.7,1.7-.2,3.1-.4,4.2-.5,1.1-.1,1.9-.3,2.4-.6.5-.3.7-.8.7-1.5h0c0-2-.5-3.4-1.5-4.4-1-1-2.5-1.5-4.5-1.5s-3.7.5-4.9,1.4-2,1.9-2.5,2.9l-4.1-1.5c.7-1.7,1.7-3.1,3-4,1.2-1,2.6-1.6,4.1-2,1.5-.4,2.9-.6,4.3-.6s2,.1,3.1.3c1.2.2,2.3.7,3.5,1.3,1.1.7,2,1.7,2.8,3,.7,1.3,1.1,3.1,1.1,5.4v18.7h-4.4v-3.8h-.2c-.3.6-.8,1.3-1.5,2-.7.7-1.6,1.3-2.8,1.8-1.1.5-2.5.7-4.2.7ZM201.4,50.1c1.7,0,3.2-.3,4.4-1,1.2-.7,2.1-1.6,2.7-2.6s.9-2.2.9-3.4v-4c-.2.2-.6.4-1.2.6s-1.3.3-2.1.5c-.8.1-1.6.2-2.3.3-.8,0-1.4.2-1.8.2-1.1.1-2.2.4-3.2.7s-1.8.8-2.4,1.5c-.6.6-.9,1.5-.9,2.6s.6,2.7,1.7,3.4c1.1.8,2.6,1.2,4.3,1.2Z"/>
      <path class="st0" d="M223.3,64c-.7,0-1.4,0-2-.2-.6-.1-1-.2-1.2-.3l1.1-3.8c1.1.3,2,.4,2.8.3.8,0,1.5-.4,2.2-1.1.6-.6,1.2-1.7,1.7-3.1l.8-2.2-10.5-28.5h4.7l7.8,22.6h.3l7.8-22.6h4.7l-12,32.5c-.5,1.5-1.2,2.7-2,3.6-.8,1-1.7,1.7-2.8,2.2-1.1.5-2.2.7-3.6.7Z"/>
      <path class="st0" d="M251.3,53.7c-.9,0-1.7-.3-2.3-1-.7-.7-1-1.4-1-2.3s.3-1.7,1-2.3c.7-.7,1.4-1,2.3-1s1.7.3,2.3,1c.7.7,1,1.4,1,2.3s-.2,1.2-.5,1.7-.7.9-1.2,1.2c-.5.3-1.1.5-1.7.5Z"/>
    </g>
    <path class="st1" d="M62,43.2v-18.3c.3-5.6-2.7-10.9-7.7-13.4-5.2-2.9-10.4-6-15.6-9.1-4.7-3.1-10.8-3.1-15.4,0-5.1,3.1-10.3,6.1-15.6,9.1C2.7,13.9-.3,19.2,0,24.8v18.3c-.3,5.6,2.7,10.9,7.7,13.4,5.2,2.9,10.4,6,15.6,9.1,4.7,3.1,10.8,3.1,15.4,0,5.1-3.1,10.3-6.1,15.6-9.1,5-2.5,8-7.8,7.7-13.4ZM19.7,17.9c-1.2,0-2.1.2-2.8.5-.7.4-1.2.9-1.4,1.7-.3.8-.4,1.7-.4,2.9v6.1c0,.8-.1,1.5-.3,2.2-.2.7-.6,1.2-1.2,1.7-.6.5-1.4.8-2.4,1.1-.1,0-.3,0-.4,0v.5c.1,0,.3,0,.4,0,1,.3,1.8.6,2.4,1.1.6.5.9,1,1.2,1.7.2.7.3,1.4.3,2.2v6.1c0,1.2.1,2.2.4,2.9.3.8.8,1.3,1.4,1.7.7.4,1.6.6,2.8.6v3c-1.5,0-2.8-.2-3.8-.5-1-.3-1.8-.8-2.4-1.5s-1.1-1.5-1.3-2.5c-.3-1-.4-2.2-.4-3.6v-4.9c0-1.7-.3-2.9-1-3.6-.7-.7-1.9-1.1-3.6-1.1v-1.8h0v-1.9c1.7,0,2.9-.4,3.6-1.1.7-.7,1-1.9,1-3.6v-4.9c0-1.4.1-2.6.4-3.6.3-1,.7-1.9,1.3-2.5s1.4-1.2,2.4-1.5c1-.3,2.3-.5,3.8-.5v3ZM27.6,52.4h-3.3l10.1-37.4h3.3l-10.1,37.4ZM54.8,34.4h0v1.9c-1.7,0-2.9.4-3.6,1.1-.7.7-1,1.9-1,3.6v4.9c0,1.4-.1,2.6-.4,3.6-.3,1-.7,1.9-1.3,2.5s-1.4,1.2-2.4,1.5c-1,.3-2.3.5-3.8.5v-3c1.2,0,2.1-.2,2.8-.6.7-.4,1.2-.9,1.4-1.7.3-.8.4-1.7.4-2.9v-6.1c0-.8.1-1.5.3-2.2s.6-1.2,1.2-1.7c.6-.5,1.4-.8,2.4-1.1.1,0,.3,0,.4,0v-.5c-.1,0-.3,0-.4,0-1-.3-1.8-.6-2.4-1.1s-.9-1-1.2-1.7c-.2-.7-.3-1.4-.3-2.2v-6.1c0-1.2-.1-2.2-.4-2.9-.3-.8-.8-1.3-1.4-1.7-.7-.4-1.6-.5-2.8-.5v-3c1.5,0,2.8.2,3.8.5,1,.3,1.8.8,2.4,1.5s1.1,1.5,1.3,2.5c.3,1,.4,2.2.4,3.6v4.9c0,1.7.3,2.9,1,3.6.7.7,1.9,1.1,3.6,1.1v1.8Z"/>
  </g>
</svg>